<?xml version="1.0" encoding="UTF-8"?>
<svg id="Layer_1" xmlns="http://www.w3.org/2000/svg" version="1.1" viewBox="0 0 1299.33 841.89">
  <!-- Generator: Adobe Illustrator 29.8.1, SVG Export Plug-In . SVG Version: 2.1.1 Build 2)  -->
  <defs>
    <style>
      .st0 {
        fill: #020202;
      }
    </style>
  </defs>
  <path class="st0" d="M1124.39,26.53c28.49,30.9,7.88,70.78,4.71,106.37,31.03,9.87,139.39-115.67,154.02-100.28,0,5.23.62,10.64-.22,15.86-.7,4.36-20.4,52.51-22.26,54.81-3.24,4.02-22.57,13.33-29.39,18.94-40.43,33.3-80.44,67.57-118.11,104.01-11,78-33.89,154.58-41.41,232.67-6.07.15-7.79,2.04-6.9-5.03,8.96-70.98,28.35-141.39,30.22-213.47-32.31,35.5-65.16,71.19-100.24,103.97-25.59,23.91-54.26,50.89-83.18,70.87-60.03,41.47-112.88,53.5-148.59,123.69-54.45,107.03-87.29,261.38-230.54,274.61-56.45,5.22-126.91,2.38-180.87-14.31-5.44-4.94.38-6.5,5.31-7.13,20.73-2.66,40.63,3.94,61.08,3.77,110.07-.91,208.04-80.03,263.34-170.24,23.87-38.94,41.38-86.4,63.67-126.21,60.16-107.45,153.72-134.55,242.45-208.97,21.29-17.85,37.82-41.31,59.18-59.05-45.7-1.66-79.35,17.52-123.07-9.45-31.58-19.48-19.24-49.98-9.66-80.29,17.64-55.81,54.64-89.91,109.42-109.12,17.59-6.17,68.57-20.73,84.36-16.25,2.53.72,14.84,8.21,16.68,10.22ZM953.53,140.03c27.17,13.92,61.17,12.46,91.32,10.77,11.16-.63,53.23-3.68,57.43-10.66,7.93-13.18-8.51-35.2-20.7-40.36-27.48-11.64-113.27,10.33-128.05,40.26Z"/>
  <path class="st0" d="M530.74,107.84c5.09,17.89,14.27,27.83,19.16,47.16,15.81,62.43-14.05,168.28-49.9,221.23-21.36,31.54-47.57,46.19-83.38,58.15-2.04,38.29-14.73,72.23-32.14,105.79-25.77,49.69-111.9,175.1-168.01,186.67-15.4,3.18-57.32,2.93-69.99-6.24-1.16-.84-19.23-19.15-20.07-20.31-26.84-37.11-25.9-123.09-18.13-167.62,4.33-24.78,37.3-72.58-5.39-66.35-30.57,4.46-70.66,66.11-89.88,89.33-8.66,1.68-5.47-6.93-4.93-12.1,3.89-37.62,32.42-86.39,57.01-114.98,32.83-38.16,96.39-69.28,89.44,10.65-6.31,72.64-80.78,208,55.72,198.98,76.41-5.05,145.19-106.68,166.41-173.95,1.56-4.93-.18-6.31-5.09-5.11-24.07,5.88-82.06,39.91-88.19-5.37-9.96-73.5,56.19-180.05,118.41-82.35l4.7,1.11c19.69-11.77,41.17-20.61,60.47-33.03,6.1-3.93,28.16-18.76,31.65-21.99,2.44-2.26,24.6-37.33,25.02-39.63,1.98-10.82-8.79-60.62-14.29-70.64-11.05-20.12-23.25,23.95-35.82,13.54,10.67-29.44,17.74-67.9,35.06-93.92,2.6-3.91,17.08-23.58,22.16-19.01Z"/>
  <path class="st0" d="M438.49,527.89c5.81-5.44,33.45-12.86,41.79-17.35,21.68-11.67,41.76-27.76,64.8-37.27-4.48,74.14-75.24,100.25-130.76,132.47-3.26-2.7-5.18-4.28-5.55-8.86s26.09-65.6,29.72-68.99Z"/>
</svg>